<?xml version="1.0" encoding="UTF-8"?>
<svg version="1.1" xmlns="http://www.w3.org/2000/svg" width="683" height="683">
<path d="M0 0 C1.15232117 -0.00199402 2.30464233 -0.00398804 3.49188232 -0.00604248 C22.32196463 -0.00235825 41.48626239 0.26820414 59.9375 4.4375 C61.39482544 4.75666382 61.39482544 4.75666382 62.8815918 5.08227539 C66.15753721 5.81831435 69.42300958 6.58973379 72.6875 7.375 C73.90324707 7.66729492 75.11899414 7.95958984 76.37158203 8.26074219 C113.95161064 17.45841992 151.11153186 29.64503291 186.84375 44.5 C202.42673516 50.95537597 218.53594332 53.71069635 235.11767578 56.4519043 C236.72431501 56.71774795 238.33092213 56.98378575 239.9375 57.25 C240.76247986 57.38669098 241.58745972 57.52338196 242.43743896 57.66421509 C284.84361509 64.73989551 327.03037752 73.64065938 369 82.9375 C370.06842133 83.17294525 371.13684265 83.4083905 372.23764038 83.65097046 C383.05452937 86.04368383 393.82938378 88.58038866 404.54296875 91.40234375 C405.41754227 91.62563858 406.29211578 91.84893341 407.19319153 92.07899475 C417.81150653 94.95064023 428.56404659 99.61038035 434.48046875 109.31640625 C439.76498377 119.5465244 441.50797365 130.09444558 439.00390625 141.484375 C437.09308327 147.09791304 434.35053245 151.81891845 430.859375 156.59765625 C429.50401376 158.29846975 429.50401376 158.29846975 429.6875 160.375 C430.85379452 161.44360995 432.07255932 162.4552998 433.3125 163.4375 C441.32306179 170.28546698 446.04271518 178.5832666 447.0390625 189.078125 C447.59158752 200.06900038 445.48881201 209.17418433 438.25 217.8125 C437.08395947 219.02107849 435.89784302 220.21079113 434.6875 221.375 C433.2953125 222.73625 433.2953125 222.73625 431.875 224.125 C422.37342725 230.83199253 411.50641345 232.52117324 400.12548828 231.14013672 C389.39586341 228.75221992 379.51199509 222.72757371 369.87709045 217.61560059 C363.17709461 214.06587478 356.3411538 210.8868201 349.4375 207.75 C339.88394712 203.35612876 330.3951132 198.84526171 320.9375 194.25 C308.27457388 188.09736054 295.51668572 182.17230398 282.6875 176.375 C283.09742188 177.61894531 283.50734375 178.86289063 283.9296875 180.14453125 C294.6266487 212.96880749 292.15888727 249.2417845 276.66748047 280.58154297 C271.70708177 289.65954217 264.20896027 294.77120708 254.6875 298.375 C250.62890098 299.37906473 246.86722706 299.45695543 242.6875 299.375 C242.0275 301.685 241.3675 303.995 240.6875 306.375 C241.40583008 306.48384521 242.12416016 306.59269043 242.86425781 306.70483398 C302.15688991 316.08470261 358.94754291 346.62486377 401.6875 388.375 C402.94046875 389.58542969 402.94046875 389.58542969 404.21875 390.8203125 C407.95099864 394.48078712 411.44741904 398.29535251 414.8515625 402.26171875 C416.85755045 404.57073893 418.92810935 406.81249945 421 409.0625 C447.66314258 438.7082992 466.31148832 475.75272595 478.6875 513.375 C478.94611816 514.15246582 479.20473633 514.92993164 479.47119141 515.73095703 C487.08743393 538.94914889 491.10847772 563.68193659 492.4765625 588.046875 C492.61185214 590.5302795 492.61185214 590.5302795 493.6875 593.375 C496.26810989 594.70819428 496.26810989 594.70819428 499.375 595.8125 C510.74555558 600.34190571 518.65419359 607.12870598 523.6875 618.375 C527.28727279 628.48864735 526.80180525 639.63388336 523.01171875 649.62109375 C519.3150737 657.30880692 513.84102269 662.84017758 506.6875 667.375 C505.13814071 668.38494402 505.13814071 668.38494402 503.55748123 669.41529095 C499.66566539 671.61937135 495.99839218 672.03335988 491.58030033 672.11706352 C490.80169832 672.14566123 490.02309631 672.17425894 489.2209003 672.20372324 C486.7096673 672.28610165 484.19975913 672.33578728 481.6875 672.375 C480.87064481 672.38892899 480.05378963 672.40285798 479.21218126 672.41720906 C472.94220501 672.51008245 466.67321502 672.50960447 460.4026947 672.50198364 C458.30824095 672.5031385 456.21378741 672.50472846 454.11933428 672.50671089 C448.41036156 672.5108563 442.70140571 672.50883508 436.99243295 672.50572467 C430.81322709 672.50345026 424.63402402 672.50696091 418.45481873 672.50970459 C407.0492745 672.51388805 395.64373708 672.5135331 384.23819303 672.51079312 C373.65994492 672.50826509 363.08169875 672.50762653 352.50345039 672.50881577 C351.44574757 672.50893034 351.44574757 672.50893034 350.36667701 672.50904724 C347.50271231 672.50935868 344.63874761 672.50967709 341.77478291 672.510007 C314.90540455 672.5130649 288.03602954 672.51029808 261.16665169 672.5049101 C237.48536689 672.50019723 213.80408748 672.50056165 190.12280273 672.50537109 C163.39375859 672.5107816 136.66471744 672.51281568 109.93567282 672.50975883 C107.05776282 672.50943826 104.17985282 672.50912541 101.30194283 672.50881577 C100.59356915 672.50873669 99.88519547 672.50865761 99.15535592 672.50857614 C89.33435291 672.50753115 79.51335188 672.50841612 69.69234913 672.51080585 C35.45426746 672.51894334 1.21641373 672.49839971 -33.02151424 672.38569605 C-36.28900385 672.37507636 -39.55649521 672.36525177 -42.82398748 672.35548687 C-54.7126022 672.31826974 -66.60068944 672.25719087 -78.48894966 672.15751624 C-81.97018663 672.12880457 -85.45129296 672.10867158 -88.93262684 672.09669328 C-92.88606065 672.08257615 -96.83887503 672.04976889 -100.79203577 672.00151601 C-102.20407396 671.98727335 -103.61619634 671.97949896 -105.02830629 671.97905764 C-116.87660159 671.96828385 -125.48826649 669.46087928 -134.3125 661.375 C-142.48003452 652.69074391 -146.74483798 642.41336468 -146.5859375 630.51171875 C-145.55166121 618.64709212 -140.50139709 609.97987815 -131.875 602.0625 C-126.22484672 597.49940082 -120.2717089 595.2820909 -113.3125 593.375 C-113.24256836 592.64724365 -113.17263672 591.9194873 -113.10058594 591.16967773 C-109.07769348 549.96090069 -100.92549306 509.68777838 -82.3125 472.375 C-81.91562988 471.57562012 -81.51875977 470.77624023 -81.10986328 469.95263672 C-69.14759017 446.08028605 -54.41293701 424.42085563 -36.40625 404.6875 C-34.62345614 402.71844409 -32.90131553 400.71609798 -31.1875 398.6875 C-22.13435958 388.32902305 -12.17675121 378.80311688 -1.3125 370.375 C-0.18876 369.47433077 0.93356087 368.57188895 2.0546875 367.66796875 C9.34451341 361.81721518 16.77442397 356.36849327 24.6875 351.375 C25.72132813 350.715 26.75515625 350.055 27.8203125 349.375 C60.98164311 328.62192542 96.31760055 315.20608003 134.37524414 306.9440918 C136.69440167 306.46342304 136.69440167 306.46342304 138.6875 305.375 C138.3575 304.055 138.0275 302.735 137.6875 301.375 C136.63691406 301.15585937 135.58632813 300.93671875 134.50390625 300.7109375 C115.12860278 296.43968971 107.4625994 285.80312624 96.625 269.6875 C95.8925708 268.60388184 95.1601416 267.52026367 94.40551758 266.40380859 C84.82984246 252.21153252 75.48793799 237.86850409 66.375 223.375 C44.26754937 186.1516242 44.26754937 186.1516242 8.32641602 164.82861328 C4.03816828 164.09149012 -0.22061823 164.14935838 -4.5625 164.125 C-5.46613281 164.104375 -6.36976563 164.08375 -7.30078125 164.0625 C-16.37915702 164.01025036 -23.27853336 166.64335187 -31.3125 170.75 C-31.97491699 171.08741211 -32.63733398 171.42482422 -33.31982422 171.77246094 C-35.6546248 172.96583844 -37.98355027 174.17024598 -40.3125 175.375 C-41.24223633 175.85291992 -42.17197266 176.33083984 -43.12988281 176.82324219 C-54.26120539 182.54637096 -65.3425498 188.34778592 -76.3125 194.375 C-84.40991488 198.8236303 -92.55736756 203.16661806 -100.75 207.4375 C-101.79865234 207.98599609 -102.84730469 208.53449219 -103.92773438 209.09960938 C-120.92856225 217.92590013 -120.92856225 217.92590013 -129.38671875 215.87109375 C-135.552364 213.81587867 -140.25418912 210.45468166 -143.625 204.8125 C-145.99615173 199.98237611 -146.44036207 196.44770136 -146.47312927 191.07014465 C-146.4831749 189.77345856 -146.49322052 188.47677246 -146.50357056 187.14079285 C-146.50960026 185.7055975 -146.51548529 184.27040155 -146.52124023 182.83520508 C-146.53078223 181.32214137 -146.54067354 179.80907983 -146.55088806 178.29602051 C-146.58223342 173.32888364 -146.60253548 168.36173023 -146.62109375 163.39453125 C-146.62439107 162.54859838 -146.62768839 161.70266551 -146.63108563 160.83109832 C-146.66186462 152.84885177 -146.68856357 144.86660135 -146.70550442 136.88431263 C-146.72740424 126.68626896 -146.76936912 116.48875218 -146.83894199 106.29091913 C-146.88623904 99.11369015 -146.91044554 91.93660306 -146.9177013 84.75922316 C-146.9226489 80.47578645 -146.93764403 76.19294409 -146.9774456 71.90967751 C-147.01442696 67.87686046 -147.02268466 63.8449744 -147.00943947 59.81201935 C-147.00949323 58.3370433 -147.01971231 56.86202478 -147.0411911 55.38720512 C-147.1639087 46.48030327 -146.63062571 40.02208367 -140.3125 33.375 C-120.05234978 15.44856188 -83.32842925 9.85817391 -57.61865234 5.00830078 C-55.52095771 4.60648274 -53.42681614 4.18524176 -51.33837891 3.73779297 C-34.30420412 0.09194265 -17.34733497 0.00793175 0 0 Z M-44.3125 26.375 C-45.12944336 26.51421875 -45.94638672 26.6534375 -46.78808594 26.796875 C-72.77196362 31.26366177 -97.68136605 39.13832477 -122.3125 48.375 C-122.6425 95.895 -122.9725 143.415 -123.3125 192.375 C-119.08588858 190.96612953 -116.10459538 189.85850505 -112.3828125 187.71484375 C-111.43905762 187.17714355 -110.49530273 186.63944336 -109.52294922 186.08544922 C-108.50475098 185.50037598 -107.48655273 184.91530273 -106.4375 184.3125 C-91.83997846 176.03165296 -77.03005844 168.17279205 -62.17926025 160.35784912 C-60.38367565 159.41247398 -58.5890348 158.46530699 -56.79443359 157.51806641 C-53.65658074 155.86245258 -50.51642665 154.21132083 -47.375 152.5625 C-46.47700684 152.08925293 -45.57901367 151.61600586 -44.65380859 151.12841797 C-25.02243232 140.872102 -4.47911004 136.79058507 17.35546875 143.15234375 C29.1527802 147.11882797 39.29798353 153.28507058 48.6875 161.375 C49.35007813 161.89320313 50.01265625 162.41140625 50.6953125 162.9453125 C67.73255072 176.67167041 78.81155897 198.94298082 90.25 217.25 C95.79819347 226.12163636 101.5798946 234.83872501 107.37252808 243.55181885 C108.44586497 245.16642314 109.51809494 246.78176391 110.58914185 248.39788818 C119.46412566 262.86459985 119.46412566 262.86459985 130.6875 275.375 C131.6775 275.375 132.6675 275.375 133.6875 275.375 C134.07421875 274.1684375 134.4609375 272.961875 134.859375 271.71875 C135.38508813 270.10405967 135.9111484 268.48948232 136.4375 266.875 C136.69015625 266.08351563 136.9428125 265.29203125 137.203125 264.4765625 C138.50825571 260.49591384 139.90158855 256.87691138 141.953125 253.21875 C143.99962812 249.23790123 143.87111484 246.76784693 142.6875 242.375 C141.65914187 239.31339437 140.4979414 236.31618722 139.3125 233.3125 C134.64697614 220.88931073 132.4439666 210.01936217 132.3125 196.75 C132.29840088 195.71278809 132.28430176 194.67557617 132.26977539 193.60693359 C132.33911699 182.52105486 134.14694449 171.89178814 141.6875 163.375 C152.49181191 153.67567453 165.88717856 155.64855774 179.6875 156.375 C193.97432513 157.92939298 210.14730299 165.62228898 220.6875 175.375 C221.91339844 176.44814453 221.91339844 176.44814453 223.1640625 177.54296875 C234.45496179 187.99813682 242.53569033 202.40617957 243.1550293 217.96972656 C243.33651834 231.41356174 240.38146248 244.21927004 236.875 257.125 C235.62338116 262.05498753 235.21989115 265.45419386 236.6875 270.375 C239.74480699 273.86906513 241.61065225 275.18270576 246.1875 276 C250.61490258 275.2093924 253.0370874 273.92862583 255.6875 270.375 C263.25659914 256.62988744 266.41503775 237.87293771 267.6875 222.375 C267.77773438 221.51132813 267.86796875 220.64765625 267.9609375 219.7578125 C268.92858086 198.24635629 257.21180234 177.89078731 244.6875 161.375 C243.34414474 159.50716718 242.00965332 157.63290026 240.6875 155.75 C240.15125 154.99460938 239.615 154.23921875 239.0625 153.4609375 C236.78774904 150.0100369 235.67336146 148.15261982 235.75 143.9375 C236.88763176 139.6144993 238.06334352 137.97493834 241.6875 135.375 C247.14924601 134.84485403 251.17232465 136.04397969 256.05078125 138.3125 C257.09520134 138.77958374 257.09520134 138.77958374 258.16072083 139.25610352 C260.44657302 140.28280532 262.72319524 141.3284057 265 142.375 C266.61209148 143.1049975 268.22456552 143.83415072 269.83740234 144.5625 C284.07932046 151.01534057 298.2312985 157.66415972 312.35517883 164.37071228 C321.57359879 168.7479638 330.81055315 173.08582164 340.0456543 177.42773438 C341.45101308 178.08853322 342.85636791 178.7493405 344.26171875 179.41015625 C344.95537033 179.73625885 345.64902191 180.06236145 346.36369324 180.39834595 C350.62192937 182.40099659 354.87731241 184.40958407 359.13093567 186.42201233 C377.28675724 195.03575547 377.28675724 195.03575547 395.625 203.25 C396.33325928 203.56582031 397.04151855 203.88164062 397.77124023 204.20703125 C403.67946699 206.70348535 409.79001529 208.35905141 416 206.25 C419.89434715 203.53301362 422.18278999 200.88913003 423.6875 196.375 C424.22977657 190.73532363 423.24743995 186.76904533 419.6875 182.375 C416.8581583 180.15350875 413.79534909 178.49913281 410.625 176.8125 C409.71250488 176.30928223 408.80000977 175.80606445 407.85986328 175.28759766 C398.23361807 170.02271634 388.47579826 164.99406687 378.7109375 159.9921875 C375.01359628 158.09768429 371.32611548 156.18902306 367.65698242 154.24047852 C354.26002307 147.12708947 340.72406986 140.29949426 327.1574707 133.51733398 C324.56720869 132.22224339 321.97836965 130.92437826 319.39086914 129.6237793 C301.30547128 120.53402244 283.10037498 111.78374974 264.6875 103.375 C263.91344818 103.0202359 263.13939636 102.6654718 262.34188843 102.29995728 C244.07918538 93.92992874 225.64046351 85.97917119 207.10839844 78.22705078 C204.11937457 76.97651707 201.13333027 75.71921453 198.14941406 74.45654297 C122.61919092 42.52313017 38.9497045 11.23048299 -44.3125 26.375 Z M300.6875 93.375 C303.50179149 95.59099666 306.32918432 97.33751271 309.51171875 98.9765625 C310.44886719 99.4619751 311.38601563 99.9473877 312.3515625 100.44750977 C313.34929687 100.95983154 314.34703125 101.47215332 315.375 102 C317.47294379 103.08407914 319.57059833 104.16871823 321.66796875 105.25390625 C322.69841309 105.7864502 323.72885742 106.31899414 324.79052734 106.86767578 C327.94454844 108.50874491 331.07761877 110.18543668 334.20727539 111.87231445 C344.22972464 117.26350495 354.48699155 122.13801158 364.77539062 126.99755859 C368.52845252 128.77277449 372.27463988 130.56220491 376.02050781 132.35253906 C378.62586683 133.59559392 381.23455779 134.83142199 383.84375 136.06640625 C386.96313247 137.54514679 390.06555698 139.05209957 393.15625 140.58984375 C393.84203125 140.92532227 394.5278125 141.26080078 395.234375 141.60644531 C397.04596771 142.49321995 398.85138953 143.39257101 400.65625 144.29296875 C403.97601936 145.47798951 405.4043027 145.54956803 408.6875 144.375 C412.34760212 141.7196318 414.9906956 139.58182382 416.6875 135.375 C417.41188038 130.81814204 417.17340609 126.64265321 415.0625 122.5 C411.08661076 117.26856679 405.87262993 115.98136673 399.66796875 114.4296875 C398.6494558 114.17304825 398.6494558 114.17304825 397.61036682 113.91122437 C395.36718433 113.34932753 393.12136579 112.79902226 390.875 112.25 C390.09572144 112.05724487 389.31644287 111.86448975 388.5135498 111.66589355 C369.73089107 107.02225247 350.83515396 102.89477978 331.91552734 98.85211182 C329.81940362 98.40324596 327.72399784 97.95121455 325.62890625 97.49755859 C322.23303199 96.76313341 318.83577123 96.035741 315.4375 95.3125 C314.49229492 95.10850586 313.54708984 94.90451172 312.57324219 94.69433594 C308.55395469 93.85287816 304.82106747 93.11024671 300.6875 93.375 Z M159.6875 178.375 C155.31018131 182.52193349 154.80671067 186.21545291 154.484375 192.0546875 C154.23298106 205.53810483 155.94957063 217.99621836 161.6875 230.375 C165.71793041 229.81685002 169.06898331 228.8713674 172.8125 227.3125 C185.93206576 222.85217441 199.98790763 224.48192177 212.6875 229.375 C214.11972801 229.8094425 215.55646544 230.22974649 217 230.625 C217.886875 230.8725 218.77375 231.12 219.6875 231.375 C222.20342626 226.34314748 221.31738528 218.92333586 220.00390625 213.609375 C214.20951769 198.31795955 203.60220044 188.91854969 189.0625 182.125 C180.19853526 178.38381698 169.13872374 175.72865735 159.6875 178.375 Z M163.89453125 259.41015625 C158.22093624 267.12904724 156.03501176 275.56555364 157.1875 285.0625 C158.46375813 291.69904229 160.86427482 297.55177482 165.6875 302.375 C167.75978956 302.68044006 167.75978956 302.68044006 170.16552734 302.63378906 C171.09344086 302.64009338 172.02135437 302.64639771 172.97738647 302.65289307 C173.98258331 302.6488446 174.98778015 302.64479614 176.0234375 302.640625 C177.05433502 302.64253845 178.08523254 302.6444519 179.14736938 302.64642334 C181.33132165 302.64778621 183.51528199 302.64408272 185.69921875 302.63574219 C189.04185239 302.62506595 192.3839459 302.63562299 195.7265625 302.6484375 C197.84635535 302.6471155 199.96614787 302.64455226 202.0859375 302.640625 C203.58766006 302.64669769 203.58766006 302.64669769 205.11972046 302.65289307 C206.05393829 302.64658875 206.98815613 302.64028442 207.95068359 302.63378906 C209.18073624 302.63140228 209.18073624 302.63140228 210.43563843 302.62896729 C214.00279507 302.22665966 216.07006928 301.10197488 218.3828125 298.37890625 C219.97813789 295.65464841 221.05623806 293.48046983 221.6875 290.375 C220.64548214 287.19748874 219.23297691 284.78564271 217.37109375 282.015625 C214.25967197 277.13552958 213.47633104 272.65064406 213.25 266.9375 C212.80136897 259.71147932 212.80136897 259.71147932 209.6875 253.375 C204.81736163 250.08808682 199.59123345 247.74398334 193.6875 247.375 C192.93855469 247.32472656 192.18960938 247.27445313 191.41796875 247.22265625 C180.00531607 246.78438234 171.45987561 250.82291353 163.89453125 259.41015625 Z M126.5625 332.625 C124.8005127 333.08169067 124.8005127 333.08169067 123.00292969 333.54760742 C80.55731389 344.76537731 36.75777836 364.50559109 4.6875 395.375 C4.6875 396.035 4.6875 396.695 4.6875 397.375 C4.1102417 397.62773682 3.5329834 397.88047363 2.93823242 398.14086914 C0.4144348 399.52472823 -1.28673326 401.09040878 -3.32421875 403.12109375 C-4.07783691 403.87068359 -4.83145508 404.62027344 -5.60791016 405.39257812 C-6.79199463 406.59043945 -6.79199463 406.59043945 -8 407.8125 C-8.81001465 408.62783203 -9.6200293 409.44316406 -10.45458984 410.28320312 C-16.13834534 416.05739501 -21.37202689 421.95030912 -26.3125 428.375 C-26.94671875 429.14199219 -27.5809375 429.90898437 -28.234375 430.69921875 C-38.15640682 442.70487725 -46.60406982 455.86274477 -54.3125 469.375 C-54.64846191 469.96039551 -54.98442383 470.54579102 -55.33056641 471.14892578 C-76.50489655 508.38725286 -87.5852503 550.7392048 -89.3125 593.375 C-88.64344131 593.38086624 -87.97438263 593.38673248 -87.28504944 593.39277649 C-80.29254375 593.45693812 -73.30048863 593.54141615 -66.30834961 593.63745117 C-63.70229042 593.67061126 -61.09616096 593.69867065 -58.48999023 593.72143555 C-54.7339089 593.75514489 -50.97846645 593.80747112 -47.22265625 593.86328125 C-46.06604996 593.86967117 -44.90944366 593.8760611 -43.7177887 593.88264465 C-37.27317801 593.99856478 -31.14214388 594.36146263 -25.3125 597.375 C-23.34461469 601.31077062 -23.85544045 606.08371871 -24.3125 610.375 C-26.18543456 613.28845376 -27.22822996 614.09560758 -30.54431152 614.9500885 C-33.70094276 615.4346252 -36.72178346 615.52233958 -39.91601562 615.54858398 C-41.89462585 615.56881874 -41.89462585 615.56881874 -43.91320801 615.58946228 C-44.96454674 615.5970522 -44.96454674 615.5970522 -46.03712463 615.60479546 C-48.25070146 615.62133245 -50.46411709 615.64457992 -52.6776123 615.66969299 C-58.96956179 615.74007959 -65.2615803 615.80015991 -71.55371094 615.85180664 C-75.41105553 615.88393908 -79.26821763 615.92530321 -83.12541199 615.97200203 C-84.58274492 615.98782904 -86.04011975 616.00023734 -87.49751282 616.00890923 C-104.60971161 615.38218614 -104.60971161 615.38218614 -119.3125 622.375 C-121.80643806 626.21539929 -123.5570237 630.22183296 -123.03125 634.8515625 C-121.64315068 639.36288529 -119.62228907 642.95844354 -116.3125 646.375 C-110.15090785 649.45579608 -101.59982961 648.52210574 -94.86981773 648.51760101 C-93.85019447 648.52085203 -92.83057121 648.52410305 -91.78005028 648.52745259 C-88.36567921 648.53711214 -84.95133998 648.539739 -81.53695679 648.5423584 C-79.0634218 648.54780778 -76.5898877 648.55367158 -74.11635458 648.55991411 C-68.03289912 648.57408136 -61.94945203 648.58357189 -55.86598592 648.59100281 C-50.80669237 648.59733936 -45.74740716 648.60600453 -40.68811989 648.61616135 C-39.9570869 648.61762835 -39.22605392 648.61909534 -38.47286842 648.6206068 C-36.9818182 648.62360749 -35.49076799 648.62661173 -33.99971779 648.62961946 C-14.71771015 648.66808684 4.56431071 648.69314119 23.84634245 648.71579656 C26.34404209 648.71874113 28.84174167 648.72173109 31.33944124 648.72473454 C63.12138197 648.7628815 94.90332761 648.796379 126.68528419 648.8179937 C134.75763749 648.82348762 142.82999065 648.82918723 150.90234375 648.83496094 C151.79429323 648.83559336 152.68624272 648.83622579 153.60522097 648.83687738 C182.54878518 648.85757543 211.49223751 648.90357255 240.43574484 648.96361362 C270.19544405 649.02523545 299.95508329 649.06419863 329.71484728 649.07349694 C333.91549291 649.0748137 338.11613842 649.07637565 342.31678391 649.07807922 C343.55685892 649.07856741 343.55685892 649.07856741 344.82198595 649.07906547 C358.1363195 649.08494611 371.45050002 649.11453301 384.76477548 649.15278544 C398.1379955 649.19066149 411.51104594 649.20294565 424.88431408 649.18902284 C432.83266166 649.18151283 440.78042245 649.19356251 448.72867652 649.23344601 C454.65747508 649.26105072 460.58585072 649.25224899 466.51468103 649.22907954 C468.9176288 649.22541462 471.32062935 649.23368635 473.72348662 649.25486106 C476.98216121 649.28185585 480.23788947 649.2659751 483.49650002 649.23912811 C484.43654121 649.25723136 485.37658241 649.27533461 486.3451097 649.29398644 C491.37136211 649.20183938 494.06497175 648.56424622 497.7306875 645.00067949 C501.62653656 640.61303735 502.92511256 636.78870923 502.6875 630.9375 C501.97849576 625.88050593 499.53985044 622.63190518 495.6875 619.375 C492.62233832 617.55962386 490.26836319 617.08995067 486.72396851 616.96536636 C485.70349237 616.92726467 484.68301624 616.88916297 483.63161659 616.84990668 C481.93137116 616.80435027 481.93137116 616.80435027 480.19677734 616.75787354 C478.97270864 616.72024092 477.74863995 616.6826083 476.48747826 616.64383531 C458.56504991 616.15839689 440.63298597 616.23629899 422.70558238 616.24768662 C417.24854944 616.24999043 411.79152005 616.24639288 406.33448792 616.24336243 C398.12529631 616.23929892 389.91610758 616.23703341 381.70691496 616.23694643 C365.60318086 616.23674247 349.4994764 616.22421536 333.39575195 616.20733643 C330.85209561 616.20473111 328.30843926 616.2021323 325.76478291 616.1995399 C321.91260465 616.19560244 318.06042641 616.19165574 314.2082482 616.18767868 C299.74413926 616.17278384 285.28002947 616.15912908 270.81591797 616.14697266 C269.49599645 616.1458591 268.17607493 616.14474553 266.81615579 616.14359823 C246.01776664 616.12634573 225.21939522 616.12301582 204.421 616.12467168 C181.67490687 616.12638678 158.92888207 616.10947153 136.18281555 616.07380509 C122.5796927 616.05314003 108.97673784 616.0478289 95.37360603 616.0621334 C86.07476408 616.07056794 76.77605348 616.06092568 67.47723931 616.0368239 C62.10948731 616.02347433 56.74205016 616.01840049 51.3743 616.03494453 C46.46643672 616.04990526 41.55916897 616.04210084 36.65135837 616.015775 C34.87152205 616.0103278 33.09163599 616.01342372 31.31183362 616.02569196 C28.90130733 616.04109555 26.49286369 616.02603977 24.08244324 616.0030632 C23.38381261 616.01487977 22.68518198 616.02669634 21.96538073 616.03887099 C18.28119816 615.96769518 16.9284936 615.61326492 14.26559925 612.98052144 C12.68959214 610.37845422 12.09928499 608.81165975 11.875 605.8125 C11.80667969 605.06871094 11.73835937 604.32492187 11.66796875 603.55859375 C11.68913996 601.19165275 11.7181661 599.54796178 12.6875 597.375 C23.08382495 592.27793508 37.48748106 594.22289587 48.87898254 594.21678162 C50.69686591 594.21220738 52.51474825 594.20720612 54.33262938 594.20181805 C59.29714489 594.18832561 64.26165361 594.18084459 69.22618258 594.17439139 C74.59138377 594.16634805 79.956571 594.15266396 85.32176208 594.13967896 C94.60710523 594.11797175 103.89244983 594.09980636 113.17780495 594.08407402 C126.6027279 594.06132278 140.02763536 594.03318736 153.45254513 594.00375474 C175.23569055 593.95614309 197.01884232 593.91286158 218.80200195 593.87231445 C239.95728041 593.83292677 261.11255324 593.79149274 282.26782227 593.74731445 C284.22515525 593.74322804 284.22515525 593.74322804 286.22203032 593.73905908 C292.76853535 593.72537906 299.3150403 593.7116589 305.86154521 593.69791877 C360.1368517 593.584055 414.41217042 593.47722341 468.6875 593.375 C468.69444349 591.61580456 468.69939514 589.85660119 468.70350647 588.09739685 C468.70647767 587.11774177 468.70944887 586.13808668 468.71251011 585.12874508 C468.16796311 525.17124479 438.18181324 464.42847329 399.2109375 420.2578125 C397.57302147 418.38663289 395.98993556 416.46545485 394.4765625 414.4921875 C393.88617187 413.79351562 393.29578125 413.09484375 392.6875 412.375 C392.0275 412.375 391.3675 412.375 390.6875 412.375 C390.42195312 411.78332031 390.15640625 411.19164062 389.8828125 410.58203125 C382.12576504 396.25937825 361.06203713 383.10151805 347.6875 374.375 C347.05070312 373.95428223 346.41390625 373.53356445 345.7578125 373.10009766 C299.56252896 342.69584628 247.39694899 326.23514179 192.1105957 326.13476562 C188.92046242 326.12513721 185.7309964 326.09407176 182.54101562 326.0625 C163.5295702 325.96290591 144.97189364 327.73474276 126.5625 332.625 Z " fill="#FFFFFF" transform="translate(151.3125,10.625)"/>
<path d="M0 0 C3.03129767 1.49360303 5.09320605 3.204948 7 6 C8.19838916 10.13690506 7.3885817 13.15218538 5.625 17 C1.07849449 22.1960063 -4.43632528 26.10423001 -9.96875 30.1953125 C-25.00025949 41.31398061 -38.60054815 54.15329123 -50 69 C-50.42635742 69.55526367 -50.85271484 70.11052734 -51.29199219 70.68261719 C-58.46420636 80.0854984 -65.01221235 89.80185736 -71 100 C-71.38397949 100.65129883 -71.76795898 101.30259766 -72.16357422 101.97363281 C-83.98913319 122.33679151 -91.07795038 145.25736115 -96.75048828 168.01025391 C-96.99782715 168.98526855 -97.24516602 169.9602832 -97.5 170.96484375 C-97.71398437 171.84132568 -97.92796875 172.71780762 -98.1484375 173.62084961 C-99.34862855 176.97402099 -101.11847883 179.0121688 -103.96875 181.1015625 C-107.76142392 182.77909135 -111.14174017 182.27886141 -115 181 C-117.81992717 179.17879704 -119.50345478 177.99309044 -121 175 C-121.54677259 168.24949252 -120.68621648 161.97276645 -119.0625 155.4375 C-118.84432617 154.54619385 -118.62615234 153.6548877 -118.40136719 152.73657227 C-107.99606612 112.14819564 -87.5648751 73.67257462 -59 43 C-57.82858546 41.64993836 -56.6617058 40.29592486 -55.5 38.9375 C-49.19857613 31.71924078 -42.28806185 25.20419624 -35 19 C-34.00871094 18.13117188 -33.01742187 17.26234375 -31.99609375 16.3671875 C-11.05913721 -1.85519728 -11.05913721 -1.85519728 0 0 Z " fill="#FFFFFF" transform="translate(209,400)"/>
<path d="M0 0 C2.18377013 1.7143616 3.74041607 3.44958214 4.984375 5.9375 C5.33926674 11.34959911 5.50928159 14.53675104 1.984375 18.9375 C-0.40816457 20.02639285 -2.44702348 20.76575829 -4.953125 21.4375 C-5.64317627 21.63690186 -6.33322754 21.83630371 -7.04418945 22.04174805 C-9.361662 22.69966914 -11.68659639 23.32178513 -14.015625 23.9375 C-15.3159668 24.28675537 -15.3159668 24.28675537 -16.64257812 24.64306641 C-19.3261882 25.35859874 -22.01317893 26.05868756 -24.703125 26.75 C-25.55189209 26.96914062 -26.40065918 27.18828125 -27.27514648 27.4140625 C-28.08024658 27.61386719 -28.88534668 27.81367187 -29.71484375 28.01953125 C-30.42471436 28.19718018 -31.13458496 28.3748291 -31.8659668 28.55786133 C-34.28365972 28.98483606 -36.56540026 29.00050501 -39.015625 28.9375 C-39.00776978 30.51664185 -39.00776978 30.51664185 -38.99975586 32.12768555 C-38.98142858 36.09561283 -38.97009343 40.06353651 -38.96069336 44.03149414 C-38.95571569 45.73722974 -38.94893114 47.4429612 -38.94018555 49.14868164 C-38.91223947 54.74611595 -38.93318324 60.34058603 -39.015625 65.9375 C-39.04100342 67.90130615 -39.04100342 67.90130615 -39.06689453 69.90478516 C-39.11313965 71.05640137 -39.15938477 72.20801758 -39.20703125 73.39453125 C-39.24127197 74.38042236 -39.2755127 75.36631348 -39.31079102 76.38208008 C-40.27758422 79.88724963 -42.04632597 80.95675994 -45.015625 82.9375 C-47.87396257 84.47660484 -49.63849703 84.9375 -52.890625 84.9375 C-57.28562742 83.53109923 -60.29582123 81.73283762 -63.015625 77.9375 C-64.00964595 73.65246831 -63.87878411 69.47418333 -63.76953125 65.09375 C-63.76436996 63.85129517 -63.75920868 62.60884033 -63.75389099 61.32873535 C-63.73239391 58.03553302 -63.67956681 54.74474129 -63.612854 51.45220947 C-63.55528973 48.11277323 -63.5481591 44.77348724 -63.53320312 41.43359375 C-63.51060471 38.88278623 -63.4853047 36.33200092 -63.45703125 33.78125 C-63.44539444 32.58423462 -63.43375763 31.38721924 -63.42176819 30.15393066 C-63.39932541 29.03256714 -63.37688263 27.91120361 -63.35375977 26.75585938 C-63.33708755 25.7746814 -63.32041534 24.79350342 -63.30323792 23.78259277 C-62.8630604 19.4283173 -62.01064088 15.99566111 -58.984375 12.77734375 C-55.00844023 10.31331049 -50.95681744 8.91898035 -46.515625 7.5 C-45.59724854 7.202146 -44.67887207 6.90429199 -43.73266602 6.59741211 C-8.61207322 -4.53969751 -8.61207322 -4.53969751 0 0 Z " fill="#FFFFFF" transform="translate(113.015625,61.0625)"/>
<path d="M0 0 C2.70552388 2.19823815 4.44778333 3.89556667 6 7 C6.37593152 11.98109259 6.1765161 15.05673864 3 19 C-0.3992567 21.81652698 -3.5545685 22.66630194 -8 22.47265625 C-11.10690756 21.73840661 -12.80690748 20.23252391 -14.86328125 17.84375 C-16.83331369 14.64837093 -17.45359003 11.72538696 -17 8 C-12.970224 0.08969896 -8.56439105 -2.54947113 0 0 Z " fill="#FFFFFF" transform="translate(246,381)"/>
</svg>
