<?xml version="1.0" encoding="UTF-8"?>
<svg version="1.1" xmlns="http://www.w3.org/2000/svg" width="683" height="683">
<path d="M0 0 C5.05070358 3.63335692 7.72730766 8.12529592 8.75390625 14.26171875 C9.03438845 18.93230159 9.00704077 23.59821335 8.98095703 28.27514648 C8.98039227 29.69488009 8.98071074 31.11461427 8.98184204 32.53434753 C8.98241403 36.37270526 8.97068478 40.21093706 8.95669413 44.04926562 C8.94416099 48.0664523 8.94301423 52.08364212 8.94064331 56.10084534 C8.93443612 63.70090653 8.91803563 71.30090993 8.89794433 78.90094572 C8.87556161 87.55631613 8.86458594 96.21168936 8.85455346 104.86708152 C8.8336687 122.66533331 8.797002 140.46350593 8.75390625 158.26171875 C21.95390625 158.26171875 35.15390625 158.26171875 48.75390625 158.26171875 C48.645625 151.20990234 48.645625 151.20990234 48.53515625 144.015625 C47.65379639 85.30296273 47.65379639 85.30296273 47.62890625 57.63671875 C47.62640869 56.69232941 47.62391113 55.74794006 47.62133789 54.77493286 C47.59866166 44.48797318 47.73776991 34.20753064 48.07421875 23.92578125 C48.09620331 22.97810883 48.11818787 22.0304364 48.14083862 21.05404663 C48.39214374 14.56297678 49.13068239 8.41445648 53.4375 3.23828125 C54.01628906 2.79226562 54.59507813 2.34625 55.19140625 1.88671875 C55.76761719 1.42523437 56.34382813 0.96375 56.9375 0.48828125 C62.6618406 -3.37718745 67.94458625 -3.71226178 74.75390625 -2.73828125 C80.61991167 -0.22551674 84.83538947 3.54629006 87.75390625 9.26171875 C88.70360414 12.99474331 88.87751183 16.48611823 88.87416077 20.32978821 C88.87622276 22.15755547 88.87622276 22.15755547 88.87832642 24.02224731 C88.87478778 25.36419703 88.87115298 26.70614649 88.86743164 28.0480957 C88.86714943 29.46753436 88.86730816 30.88697317 88.86787415 32.30641174 C88.8681608 36.15311324 88.8622853 39.9997835 88.85530019 43.84647775 C88.84904478 47.86901964 88.84846112 51.89156227 88.84727478 55.91410828 C88.84416792 63.52838163 88.83596321 71.14264061 88.82592529 78.75690764 C88.81474414 87.42674783 88.80924865 96.09658871 88.80422986 104.76643431 C88.79378007 122.59820559 88.77544259 140.42995717 88.75390625 158.26171875 C101.95390625 158.26171875 115.15390625 158.26171875 128.75390625 158.26171875 C128.68171875 153.56050781 128.60953125 148.85929688 128.53515625 144.015625 C127.65379639 85.30296273 127.65379639 85.30296273 127.62890625 57.63671875 C127.62515991 56.22013474 127.62515991 56.22013474 127.62133789 54.77493286 C127.59866166 44.48797318 127.73776991 34.20753064 128.07421875 23.92578125 C128.09620331 22.97810883 128.11818787 22.0304364 128.14083862 21.05404663 C128.39214374 14.56297678 129.13068239 8.41445648 133.4375 3.23828125 C134.01628906 2.79226562 134.59507812 2.34625 135.19140625 1.88671875 C135.76761719 1.42523437 136.34382812 0.96375 136.9375 0.48828125 C142.6618406 -3.37718745 147.94458625 -3.71226178 154.75390625 -2.73828125 C160.68077859 -0.19944377 164.79181758 3.58438213 167.75390625 9.26171875 C168.82819019 12.58133352 168.87486056 15.65510155 168.86743164 19.13183594 C168.86735611 20.31275818 168.86728058 21.49368042 168.86720276 22.71038818 C168.86204147 23.98029602 168.85688019 25.25020386 168.8515625 26.55859375 C168.84944008 28.51445404 168.84944008 28.51445404 168.84727478 30.50982666 C168.84346492 33.9687493 168.83364776 37.42762966 168.8225708 40.88653564 C168.81232371 44.41914294 168.8077701 47.95175711 168.80273438 51.484375 C168.79202407 58.41017357 168.77496609 65.33594413 168.75390625 72.26171875 C169.40285858 71.94780685 170.05181091 71.63389496 170.72042847 71.31047058 C173.7067126 69.86804483 176.69513071 68.43009316 179.68359375 66.9921875 C180.70412842 66.49843628 181.72466309 66.00468506 182.77612305 65.49597168 C204.88279692 54.87540623 228.56323099 48.47384424 252.50390625 43.38671875 C253.39360107 43.19577637 254.2832959 43.00483398 255.19995117 42.80810547 C271.82797878 39.44561313 288.15460317 38.91617481 305.07104492 38.94604492 C308.78529594 38.94919239 312.49873811 38.92571048 316.21289062 38.90039062 C336.87899413 38.84382643 356.91541947 40.58966729 377.00390625 45.57421875 C378.27419678 45.88270752 379.5444873 46.19119629 380.85327148 46.5090332 C384.49265727 47.40520512 388.12434402 48.32664865 391.75390625 49.26171875 C392.68154785 49.49729492 393.60918945 49.73287109 394.56494141 49.97558594 C432.40665729 59.78232928 468.48498316 79.18927484 498.68359375 103.77734375 C501.94320056 106.41488819 505.2669677 108.944664 508.62890625 111.44921875 C510.11003906 112.55330078 510.11003906 112.55330078 511.62109375 113.6796875 C512.32492187 114.20175781 513.02875 114.72382812 513.75390625 115.26171875 C516.18190321 113.05464725 517.58650429 110.94433628 519.03125 108.0078125 C519.45599609 107.16226807 519.88074219 106.31672363 520.31835938 105.44555664 C520.99801758 104.08611938 520.99801758 104.08611938 521.69140625 102.69921875 C532.21101781 82.18068111 545.7657183 63.84871524 561.75390625 47.26171875 C562.33720703 46.65650391 562.92050781 46.05128906 563.52148438 45.42773438 C571.21110352 37.49756406 579.01838536 30.04647023 587.75390625 23.26171875 C588.80761593 22.40825403 589.85961956 21.55267985 590.91015625 20.6953125 C597.45661375 15.39190145 604.19888669 10.4628313 611.19140625 5.76171875 C611.93656494 5.25729248 612.68172363 4.75286621 613.44946289 4.2331543 C620.96999347 -0.74536774 627.50888945 -4.05047718 636.75390625 -2.73828125 C643.6642453 -0.45297227 647.86267988 5.4248792 651.75390625 11.26171875 C651.94707808 14.31047748 652.01992311 17.26748081 652.00279522 20.31666183 C652.0054025 21.25926507 652.00800979 22.2018683 652.01069608 23.17303526 C652.01704039 26.36206631 652.00900522 29.55090374 652.00114441 32.7399292 C652.00273134 35.03795802 652.00519377 37.33598637 652.00846082 39.63401341 C652.01490159 45.97436487 652.00878469 52.3146529 652.00069654 58.65500021 C651.99383697 64.78530868 651.99828736 70.91561422 652.00152575 77.04592396 C652.00781324 89.60352688 652.00461312 102.16111105 651.99593163 114.71871185 C651.98731092 127.19239221 651.98241158 139.66606415 651.98259926 152.13974762 C651.98261073 153.30447392 651.98261073 153.30447392 651.98262243 154.49273004 C651.98266334 157.64541016 651.98272896 160.79809028 651.98282824 163.9507704 C651.98373569 193.57638692 651.97377676 223.20199069 651.95839857 252.82760278 C651.9448432 279.03708861 651.93853433 305.24656537 651.93920898 331.45605469 C651.9392494 333.13156393 651.93928976 334.80707318 651.93933006 336.48258242 C651.93935041 337.31098291 651.93937077 338.13938341 651.93939173 338.99288695 C651.93949256 343.16466486 651.93958314 347.33644276 651.93966198 351.50822067 C651.93967869 352.33157542 651.93969541 353.15493017 651.93971263 354.00323506 C651.94008031 375.98089403 651.93551081 397.95855189 651.92933542 419.93620992 C651.92911514 420.72141261 651.92889487 421.50661529 651.92866793 422.315612 C651.92777985 425.47207925 651.92689133 428.62854649 651.92597697 431.78501373 C651.92284579 442.66360631 651.92131143 453.54219799 651.92086548 464.42079098 C651.92026084 478.49712564 651.9161245 492.57345289 651.90643402 506.64978442 C651.90185261 513.41696194 651.89874079 520.18412945 651.90002823 526.9513092 C651.90210376 542.52094569 651.87209926 558.08994205 651.77585813 573.6593045 C651.76085613 576.12120904 651.74700088 578.58312076 651.73413542 581.04503739 C651.69313316 588.69828233 651.62970334 596.35078813 651.53561423 604.00357094 C651.50881371 606.39715608 651.48837479 608.79082249 651.47487982 611.18451962 C651.35462182 630.74442636 649.18588603 647.49411154 634.75390625 662.26171875 C621.54276728 674.4858186 605.7887049 680.64195821 587.75390625 680.26171875 C571.94466105 679.17001268 558.80754539 672.6527221 547.75390625 661.26171875 C546.78517578 660.30652344 546.78517578 660.30652344 545.796875 659.33203125 C540.73632903 654.01790673 537.64700344 647.9624484 534.75390625 641.26171875 C534.25697266 640.12863281 534.25697266 640.12863281 533.75 638.97265625 C531.84663 633.76827257 531.46564789 628.52150086 531.21484375 623.02734375 C531.17436417 622.17710632 531.13388458 621.3268689 531.09217834 620.4508667 C530.5050783 606.89597268 530.40178014 593.32210737 530.22167969 579.75689697 C530.1705925 575.96810206 530.11537144 572.17936734 530.06054688 568.390625 C529.95439463 561.01437449 529.85265966 553.63807243 529.75390625 546.26171875 C529.2723407 546.74541428 528.79077515 547.2291098 528.2946167 547.72746277 C527.66339905 548.36033707 527.0321814 548.99321136 526.38183594 549.64526367 C525.75589539 550.2733342 525.12995483 550.90140472 524.48504639 551.54850769 C522.71541271 553.29981362 520.89995688 554.96083622 519.00390625 556.57421875 C516.74730134 558.51214281 514.53323832 560.46868507 512.36328125 562.50390625 C504.62462944 569.75599612 496.33725433 576.05002785 487.75390625 582.26171875 C486.69429687 583.03386719 485.6346875 583.80601562 484.54296875 584.6015625 C470.76879222 594.39220469 456.12409897 603.08887517 440.83056641 610.28320312 C439.40202828 610.95632572 437.97740778 611.63780555 436.55615234 612.32617188 C368.28677865 645.33298056 289.46116065 648.22316295 217.75390625 625.26171875 C216.89635742 624.99133789 216.03880859 624.72095703 215.15527344 624.44238281 C185.77459485 615.07678999 158.09820729 600.5214259 133.05444336 582.62084961 C132.43355331 582.17712509 131.81266327 581.73340057 131.17295837 581.27622986 C130.47052757 580.77404686 130.47052757 580.77404686 129.75390625 580.26171875 C129.75026062 580.81500854 129.74661499 581.36829834 129.74285889 581.93835449 C129.70052932 587.78043265 129.63084594 593.62176148 129.54638672 599.46337891 C129.51843634 601.63354946 129.49709515 603.80381691 129.48291016 605.97412109 C129.32766887 628.40131183 126.82034993 646.96175536 110.546875 663.59765625 C100.36751705 673.30719768 86.75210292 679.15659796 72.75390625 680.26171875 C72.08875 680.31585937 71.42359375 680.37 70.73828125 680.42578125 C55.38316549 681.05136004 39.85502929 674.85999411 28.25390625 664.94921875 C16.64959677 653.55944273 8.80897348 639.21385459 8.50781059 622.74878693 C8.49942603 620.11883043 8.50174983 617.49028501 8.51339722 614.86047363 C8.51252429 613.39338911 8.5107717 611.92630488 8.50821888 610.45922232 C8.50375848 606.44109976 8.51173102 602.42308433 8.52177501 598.40497541 C8.53042608 594.06697062 8.52748817 589.72897169 8.52597046 585.39096069 C8.52492266 577.87946648 8.53118832 570.36800707 8.54244614 562.85652161 C8.55871235 551.9962298 8.56391029 541.13595478 8.56642212 530.27565211 C8.57079746 512.65478719 8.5841022 495.0339408 8.60302734 477.41308594 C8.6213903 460.2978525 8.63554478 443.18262411 8.64404297 426.06738281 C8.64483114 424.48444084 8.64483114 424.48444084 8.64563523 422.86952025 C8.64824534 417.57532413 8.65077275 412.28112798 8.65325904 406.9869318 C8.67398653 363.07851461 8.70920768 319.17011764 8.75390625 275.26171875 C7.81820801 274.96064209 6.88250977 274.65956543 5.91845703 274.34936523 C2.84554625 273.29321514 0.38773661 272.02362366 -2.37109375 270.32421875 C-3.61246094 269.56818359 -3.61246094 269.56818359 -4.87890625 268.796875 C-7.09194996 267.36168329 -9.23123347 265.96552917 -11.24609375 264.26171875 C-11.24609375 263.60171875 -11.24609375 262.94171875 -11.24609375 262.26171875 C-12.10074219 261.92720703 -12.10074219 261.92720703 -12.97265625 261.5859375 C-22.3233007 256.1394281 -27.14836854 243.01955318 -30.24609375 233.26171875 C-31.28886122 228.29399884 -31.3919388 223.51901544 -31.38653564 218.46975708 C-31.38950677 217.59639485 -31.39247789 216.72303262 -31.39553905 215.82320487 C-31.40419551 212.9031229 -31.40573169 209.98308206 -31.40722656 207.06298828 C-31.4118568 204.96673495 -31.41688174 202.87048247 -31.42227173 200.77423096 C-31.43537563 195.08414824 -31.44183646 189.39407732 -31.44628239 183.70398188 C-31.44921562 180.14832431 -31.45332085 176.59266995 -31.45778656 173.03701401 C-31.47145458 161.90979246 -31.48112533 150.78257826 -31.48498845 139.6553489 C-31.48947128 126.81434758 -31.50703259 113.97345259 -31.53598905 101.1324836 C-31.55760297 91.20280588 -31.56769254 81.2731581 -31.56902957 71.3434571 C-31.57007756 65.41429483 -31.57598452 59.48523261 -31.59384918 53.55609512 C-31.61032535 47.97958647 -31.6124875 42.40325314 -31.60371017 36.82672882 C-31.60293963 34.78213151 -31.60728476 32.73752477 -31.61716843 30.6929512 C-31.6298871 27.89764165 -31.62401152 25.10295324 -31.61358643 22.30764771 C-31.62567103 21.09974648 -31.62567103 21.09974648 -31.63799977 19.8674432 C-31.58499641 13.77332067 -30.56311463 8.10583442 -26.59765625 3.23828125 C-18.40408588 -3.17569012 -9.54229935 -5.49405114 0 0 Z M605.62109375 61.26171875 C604.66456909 62.21498047 604.66456909 62.21498047 603.6887207 63.1875 C603.00898193 63.87199219 602.32924316 64.55648437 601.62890625 65.26171875 C600.93821045 65.95652344 600.24751465 66.65132812 599.53588867 67.3671875 C595.09415348 71.85789499 590.75064491 76.36615022 586.75390625 81.26171875 C586.33077148 81.77105957 585.90763672 82.28040039 585.47167969 82.80517578 C577.93314514 91.89576156 570.98415632 101.2249633 564.75390625 111.26171875 C564.38201172 111.85968262 564.01011719 112.45764648 563.62695312 113.07373047 C551.61640411 132.69413792 543.39642345 154.02684899 537.75390625 176.26171875 C537.43534668 177.4537793 537.43534668 177.4537793 537.11035156 178.66992188 C529.91814111 205.86656762 531.46356571 235.32502202 531.55111837 263.23726988 C531.56385869 268.00571806 531.56481415 272.77417048 531.56716919 277.54263306 C531.57331704 286.51960575 531.58963433 295.49652811 531.60986817 304.47347891 C531.63243928 314.71581059 531.6432732 324.95814502 531.65325904 335.20049548 C531.67400883 356.22093103 531.70905033 377.24132169 531.75390625 398.26171875 C532.72046143 398.2757373 532.72046143 398.2757373 533.70654297 398.29003906 C536.68138392 398.34436919 539.65475602 398.42788854 542.62890625 398.51171875 C543.64210938 398.52589844 544.6553125 398.54007812 545.69921875 398.5546875 C552.98922674 398.7883416 560.95625081 399.57066802 566.44116211 404.90161133 C573.32687148 414.52791371 570.91693988 429.8456613 570.94335938 441.16040039 C570.95131467 443.05710529 570.95970362 444.95380841 570.9684906 446.85050964 C570.98646083 450.91603637 571.00150687 454.98155941 571.01426697 459.04710579 C571.03459717 465.48190439 571.06223332 471.91665925 571.09094238 478.35142517 C571.15595237 493.16954981 571.21150118 507.98770703 571.26692963 522.80587006 C571.3178573 536.39586989 571.37080509 549.98585381 571.43145514 563.57581419 C571.45970199 569.96646021 571.48333365 576.35710129 571.50337982 582.74777806 C571.51681882 586.72853001 571.53422755 590.70925758 571.55269051 594.68998909 C571.56040911 596.5289447 571.56649487 598.36790804 571.57078362 600.20687485 C570.50650651 618.44355126 570.50650651 618.44355126 577.75390625 634.26171875 C582.57420161 638.10114005 587.3549663 640.07354015 593.55078125 639.68359375 C598.63910001 638.70923484 602.44012577 636.54092606 606.12890625 632.94921875 C610.38815738 625.90507264 610.17371265 618.37528402 610.37081909 610.35891724 C610.38929307 609.70010009 610.40776704 609.04128294 610.42680083 608.36250164 C610.99612985 587.97754258 610.89619029 567.5790606 610.88463092 547.18820333 C610.88233807 541.18661993 610.88587554 535.18503926 610.88861084 529.18345642 C610.89277301 518.14150022 610.8924513 507.09954916 610.88969937 496.05759277 C610.88716775 485.84732531 610.88653451 475.63705986 610.88772202 465.42679214 C610.8877984 464.74527834 610.88787479 464.06376453 610.88795349 463.36159879 C610.88826491 460.59393262 610.88858332 457.82626645 610.88891325 455.05860029 C610.89196198 429.17378857 610.88921554 403.28898033 610.88381635 377.40416915 C610.87907513 354.49991298 610.87949387 331.59566237 610.88427734 308.69140625 C610.88965472 282.85813376 610.89174244 257.02486435 610.88866508 231.19159138 C610.88834445 228.42757424 610.8880316 225.66355709 610.88772202 222.89953995 C610.8876034 221.87895551 610.8876034 221.87895551 610.88748239 220.8377532 C610.88635393 210.64802841 610.88765823 200.45830587 610.89020157 190.26858139 C610.89308597 178.65571006 610.89219912 167.04284497 610.88692082 155.42997436 C610.88432325 149.52354423 610.88321025 143.61712527 610.88656998 137.71069527 C610.90044783 111.21019519 610.66335439 84.74793537 609.75390625 58.26171875 C607.93051402 58.26171875 606.84667561 60.03852594 605.62109375 61.26171875 Z M173.75390625 116.26171875 C172.83424072 116.5870459 171.9145752 116.91237305 170.96704102 117.24755859 C168.2453977 119.72450921 168.37419826 120.51770046 168.1862793 124.1003418 C168.18707168 126.15821018 168.21536578 128.21618279 168.265625 130.2734375 C168.27269974 131.35679886 168.27977448 132.44016022 168.2870636 133.55635071 C168.31508371 137.02133837 168.37783964 140.48471838 168.44140625 143.94921875 C168.46647911 146.29620065 168.48929404 148.64320783 168.50976562 150.99023438 C168.56493526 156.74794565 168.64863804 162.50471737 168.75390625 168.26171875 C169.86362793 167.63555664 170.97334961 167.00939453 172.11669922 166.36425781 C173.05302689 165.83593353 173.05302689 165.83593353 174.00827026 165.29693604 C176.12873846 164.03943141 177.98684171 162.58971589 179.87890625 161.01171875 C185.50988652 156.5431405 191.58333068 152.93013653 197.75390625 149.26171875 C198.76582031 148.62363281 199.77773437 147.98554688 200.8203125 147.328125 C224.25758247 133.03570393 251.7876281 125.28503515 278.75390625 121.26171875 C279.54055664 121.143125 280.32720703 121.02453125 281.13769531 120.90234375 C336.62464801 112.91792572 395.18725448 127.95941527 440.4609375 160.91015625 C447.67407246 166.3469818 454.29692756 172.38684131 460.78198242 178.66723633 C461.37342041 179.23595459 461.9648584 179.80467285 462.57421875 180.390625 C463.35176514 181.1496814 463.35176514 181.1496814 464.14501953 181.92407227 C465.74711931 183.36053667 465.74711931 183.36053667 467.88867188 184.32250977 C470.32126643 185.54740391 470.62411886 186.8304163 471.75390625 189.26171875 C472.91773673 190.51297312 474.13146823 191.71879869 475.37890625 192.88671875 C479.31224607 196.69133109 482.61652377 200.78496445 485.89453125 205.16015625 C487.78165226 207.29307873 489.21149116 208.08936093 491.75390625 209.26171875 C491.95753784 207.83460571 491.95753784 207.83460571 492.1652832 206.37866211 C492.68111035 202.77160643 493.20248251 199.16536862 493.7253418 195.55932617 C493.94880677 194.01298694 494.1708642 192.4664435 494.39135742 190.91967773 C494.60569453 189.41736499 494.82200825 187.91533292 495.04029846 186.41358948 C495.25873197 184.91041251 495.47285562 183.40660313 495.682724 181.90220642 C496.21680902 178.22804964 496.86355829 174.6730734 497.84399414 171.09008789 C499.85487211 164.35878377 499.85487211 164.35878377 498.61694336 157.68774414 C496.75893644 155.42171432 494.84603979 153.66198499 492.56640625 151.82421875 C491.4980957 150.85258789 491.4980957 150.85258789 490.40820312 149.86132812 C487.04654036 146.48460499 487.04654036 146.48460499 482.75390625 145.26171875 C482.75390625 144.60171875 482.75390625 143.94171875 482.75390625 143.26171875 C480.8135203 141.54581485 478.86937904 139.95917352 476.81640625 138.38671875 C476.18597412 137.90058105 475.55554199 137.41444336 474.90600586 136.91357422 C472.86385801 135.35129989 470.8108612 133.80443496 468.75390625 132.26171875 C468.10679687 131.77316406 467.4596875 131.28460938 466.79296875 130.78125 C450.18415709 118.34131677 432.07414561 108.00615557 412.87060547 100.13378906 C410.80105676 99.28114454 408.74870777 98.39461908 406.6953125 97.50390625 C376.81027531 84.87786588 343.51389813 79.03921694 311.19140625 79.01171875 C310.47147491 79.01104401 309.75154358 79.01036926 309.00979614 79.00967407 C260.7905717 79.08077133 215.67524611 92.88123286 173.75390625 116.26171875 Z M198.75390625 197.26171875 C197.94542236 197.92010742 197.94542236 197.92010742 197.12060547 198.59179688 C190.13227762 204.31621467 183.48551488 210.34300967 177.06640625 216.69921875 C176.47811035 217.27824951 175.88981445 217.85728027 175.28369141 218.45385742 C169.99587788 223.78117849 167.49649371 228.63145766 165.50390625 235.88671875 C163.21271995 243.72437292 159.99557483 251.1265761 154.04296875 256.9296875 C152.52209911 258.19231243 152.52209911 258.19231243 152.75390625 260.26171875 C152.09390625 260.26171875 151.43390625 260.26171875 150.75390625 260.26171875 C134.81642316 275.19413534 130.69975672 305.24543994 129.54931641 325.94238281 C129.45139505 329.73894771 129.42490045 333.52644897 129.44140625 337.32421875 C129.44322906 337.99569946 129.44505188 338.66718018 129.44692993 339.35900879 C129.65471524 385.13133736 146.61899863 429.22247751 179.21484375 461.71484375 C180.83178397 463.33675917 182.42365846 464.98434614 183.98046875 466.6640625 C214.61862028 499.04868846 259.55693738 516.26083287 303.56567383 518.18920898 C341.60298079 519.22269907 381.92210653 509.14238219 412.75390625 486.26171875 C413.94132294 485.44070106 415.13022677 484.62183156 416.3203125 483.8046875 C433.31402109 471.88807984 448.49966877 456.73111439 459.75390625 439.26171875 C460.21587402 438.55305664 460.6778418 437.84439453 461.15380859 437.11425781 C477.81393337 411.35002593 489.80506714 381.48423181 489.95703125 350.453125 C489.96273132 349.52813705 489.9684314 348.60314911 489.9743042 347.65013123 C489.98370686 345.69783656 489.99026923 343.74552636 489.99414062 341.79321289 C490.00377606 338.86379833 490.03481607 335.93510772 490.06640625 333.00585938 C490.15618035 317.34193833 488.31817661 302.94909298 483.62890625 287.94921875 C483.33105225 286.98701416 483.03319824 286.02480957 482.72631836 285.03344727 C471.16593261 248.94241462 449.02647454 217.95431358 418.75390625 195.26171875 C418.18961914 194.83810059 417.62533203 194.41448242 417.04394531 193.97802734 C392.36901199 175.69782899 363.2650965 163.90298655 332.75390625 160.26171875 C331.99883789 160.16963135 331.24376953 160.07754395 330.46582031 159.98266602 C284.3618083 154.83688128 234.85550482 167.67506266 198.75390625 197.26171875 Z M8.75390625 199.26171875 C7.91251103 218.24927156 7.91251103 218.24927156 16.50390625 234.13671875 C22.58607523 238.11352155 28.9778572 238.56056993 36.04663086 238.53637695 C36.83313522 238.54148788 37.61963959 238.54659882 38.42997742 238.55186462 C41.00548106 238.56565736 43.58071403 238.56481183 46.15625 238.5625 C47.96171669 238.56639233 49.76718248 238.5707281 51.57264709 238.57548523 C55.34753393 238.58292506 59.12232719 238.58267224 62.8972168 238.57739258 C67.71656182 238.57159802 72.53552251 238.58853952 77.35480404 238.61173725 C81.08075674 238.62652149 84.80661784 238.62733997 88.53259468 238.62422752 C90.30866825 238.62473828 92.08474729 238.62992956 93.86079216 238.64003944 C108.73484652 238.94194945 108.73484652 238.94194945 122.12890625 233.07421875 C130.51571678 224.08835032 128.75390625 210.6758222 128.75390625 199.26171875 C89.15390625 199.26171875 49.55390625 199.26171875 8.75390625 199.26171875 Z M48.75390625 279.26171875 C48.73112344 314.98097422 48.71330282 350.70022752 48.70284092 386.41948881 C48.70159077 390.67215597 48.70029639 394.9248231 48.69897461 399.17749023 C48.6987123 400.02383559 48.69844999 400.87018095 48.69817973 401.74217314 C48.69387231 415.30277338 48.68601306 428.86336922 48.67675345 442.42396688 C48.66727774 456.42170546 48.66182183 470.4194418 48.65981776 484.41718346 C48.65858922 492.24435303 48.65569537 500.07151346 48.64817619 507.89867973 C48.62111394 537.20882113 48.63096063 566.52024219 49.02398026 595.82827008 C49.05595955 598.32005032 49.08329095 600.81189518 49.10563648 603.30378044 C49.13793124 606.70953677 49.18901956 610.1144852 49.24562073 613.51991272 C49.25170558 614.51261976 49.25779042 615.5053268 49.26405966 616.52811587 C49.39939083 622.93568405 50.085781 628.14469091 54.40234375 633.1875 C59.64889184 637.4013565 63.62557443 639.78587594 70.63671875 639.57421875 C75.93964383 638.79149918 79.73510859 636.19192531 83.62890625 632.63671875 C88.59954816 624.74216983 88.05645515 615.13259929 88.07275391 606.08007812 C88.0827967 604.78088503 88.09283949 603.48169193 88.10318661 602.14312935 C88.13053044 598.55581151 88.14569646 594.96853332 88.15861058 591.38113832 C88.17461633 587.48894511 88.20151984 583.59682342 88.22679138 579.7046814 C88.27449891 572.05987002 88.31103302 564.4150426 88.34357744 556.77015316 C88.37030825 550.54126386 88.40152613 544.31241087 88.43551636 538.08355713 C88.903794 451.81027661 88.85333926 365.53591431 88.75390625 279.26171875 C75.55390625 279.26171875 62.35390625 279.26171875 48.75390625 279.26171875 Z M506.75390625 439.26171875 C505.37203125 441.88109375 503.99015625 444.50046875 502.56640625 447.19921875 C497.60671485 456.30674234 491.71504441 464.39078785 485.21142578 472.44580078 C483.9812151 473.97851553 482.78360991 475.53731629 481.59375 477.1015625 C469.54933436 492.64197155 454.77340871 505.96316922 438.75390625 517.26171875 C438.15223633 517.69742188 437.55056641 518.133125 436.93066406 518.58203125 C403.12705943 543.00302872 360.42983196 557.12767996 318.75390625 558.26171875 C317.61695313 558.31328125 316.48 558.36484375 315.30859375 558.41796875 C283.55386457 559.22700644 251.89733814 552.60868551 222.75390625 540.26171875 C221.91424316 539.9073877 221.07458008 539.55305664 220.20947266 539.18798828 C203.27226373 531.90590507 186.65289666 522.43750643 172.75390625 510.26171875 C171.59259 509.27953989 170.42969561 508.29922536 169.265625 507.3203125 C159.46904154 499.04027521 159.46904154 499.04027521 155.45703125 494.89453125 C153.14401969 492.02914257 153.14401969 492.02914257 150.75390625 492.26171875 C150.75390625 491.60171875 150.75390625 490.94171875 150.75390625 490.26171875 C149.12547131 488.5576779 147.45093198 486.89746299 145.75390625 485.26171875 C140.32888806 479.5145901 135.23765669 473.77038874 130.75390625 467.26171875 C130.42390625 467.26171875 130.09390625 467.26171875 129.75390625 467.26171875 C129.43698227 474.83212444 129.16465922 482.40304103 128.94825745 489.97696781 C128.84637108 493.494567 128.7295234 497.01029969 128.57763672 500.52612305 C128.40343383 504.57408815 128.295857 508.62150532 128.19140625 512.671875 C128.09666016 514.55351097 128.09666016 514.55351097 128 516.47315979 C127.77272287 522.92869228 127.77272287 522.92869228 130.47198486 528.56758118 C132.48300598 530.33994053 134.50808887 531.80523243 136.75390625 533.26171875 C138.20023438 534.54755859 138.20023438 534.54755859 139.67578125 535.859375 C154.37257768 548.66832327 170.45888017 559.30649311 187.75390625 568.26171875 C188.79804688 568.80650879 188.79804688 568.80650879 189.86328125 569.36230469 C198.96999783 574.09112133 208.19971861 578.50289072 217.75390625 582.26171875 C218.45370605 582.53870605 219.15350586 582.81569336 219.87451172 583.10107422 C280.55745508 606.70804264 352.2376345 605.05339488 411.75390625 578.88671875 C415.77985113 577.06370264 419.7744873 575.18402104 423.75390625 573.26171875 C424.62515137 572.84132324 425.49639648 572.42092773 426.39404297 571.98779297 C446.81312163 561.99058031 465.62588991 549.03046233 482.27734375 533.5546875 C484.37699382 531.61068972 486.51160116 529.73910455 488.69140625 527.88671875 C492.20159242 524.83155671 495.51878793 521.60495768 498.81640625 518.32421875 C499.29907959 517.8461377 499.78175293 517.36805664 500.27905273 516.87548828 C506.8319777 510.2949325 512.70191681 503.21313066 518.31640625 495.82421875 C518.85458984 495.12490234 519.39277344 494.42558594 519.94726562 493.70507812 C521.03428508 492.28057248 522.10329507 490.84215231 523.15429688 489.39086914 C524.75390625 487.26171875 524.75390625 487.26171875 526.47851562 485.42749023 C533.02130855 477.72696285 531.39989208 467.69650524 531.12890625 458.19921875 C531.09876964 456.3613718 531.07140036 454.52347727 531.046875 452.68554688 C530.98629646 448.20879294 530.86886478 443.73871472 530.75390625 439.26171875 C522.83390625 439.26171875 514.91390625 439.26171875 506.75390625 439.26171875 Z " fill="#FFFFFF" transform="translate(31.24609375,2.73828125)"/>
</svg>
