<?xml version="1.0" standalone="no"?>
<!DOCTYPE svg PUBLIC "-//W3C//DTD SVG 20010904//EN"
 "http://www.w3.org/TR/2001/REC-SVG-20010904/DTD/svg10.dtd">
<svg version="1.0" xmlns="http://www.w3.org/2000/svg"
 width="512.000000pt" height="512.000000pt" viewBox="0 0 512.000000 512.000000"
 preserveAspectRatio="xMidYMid meet">

<g transform="translate(0.000000,512.000000) scale(0.100000,-0.100000)"
fill="#000000" stroke="none">
<path d="M925 5030 c-204 -23 -420 -71 -605 -135 -158 -55 -221 -88 -250 -131
l-25 -38 -3 -560 c-2 -309 0 -580 3 -604 12 -84 101 -151 184 -139 22 3 173
79 377 190 186 102 360 191 386 197 26 7 84 10 130 8 67 -2 95 -9 148 -34 118
-56 206 -152 340 -369 137 -224 340 -523 375 -554 41 -36 85 -56 142 -66 29
-4 43 -13 51 -31 10 -21 9 -24 -11 -28 -239 -49 -399 -102 -602 -201 -251
-123 -442 -262 -635 -461 -377 -391 -596 -892 -633 -1447 -2 -37 -4 -39 -55
-56 -140 -48 -225 -194 -193 -335 23 -104 112 -199 211 -226 25 -7 789 -9
2321 -8 l2284 3 51 27 c233 123 205 457 -46 540 l-45 15 -7 94 c-32 425 -188
835 -452 1189 -86 116 -263 300 -371 387 -209 168 -479 316 -724 396 -116 38
-170 52 -318 83 -20 4 -21 7 -11 34 8 24 16 30 37 30 83 0 174 52 215 123 60
102 115 331 117 487 1 93 -8 143 -45 246 -14 38 -24 70 -22 72 2 2 201 -91
442 -205 l439 -208 80 0 c91 0 139 20 201 82 112 111 103 303 -18 408 l-45 39
32 46 c43 60 55 100 55 180 0 123 -74 222 -196 259 -173 54 -955 218 -1364
286 -152 26 -237 45 -290 67 -392 157 -769 275 -1053 329 -127 24 -460 34
-602 19z m541 -180 c415 -68 1038 -293 1799 -652 408 -193 973 -485 1017 -526
74 -69 23 -192 -80 -192 -22 0 -221 89 -613 275 -399 189 -591 275 -614 275
-24 0 -39 -7 -54 -26 -36 -46 -28 -77 45 -167 77 -94 135 -208 164 -322 18
-72 19 -90 10 -172 -12 -95 -47 -240 -74 -305 -29 -69 -96 -89 -141 -43 -31
30 -31 58 -5 150 33 112 49 237 38 297 -25 139 -132 281 -265 350 -121 63
-195 83 -310 83 -97 0 -103 -1 -144 -30 -87 -61 -114 -129 -114 -285 1 -112
12 -164 65 -301 l30 -76 -24 -44 c-23 -42 -37 -83 -50 -141 -14 -60 -45 -30
-174 164 -50 75 -141 216 -203 315 -61 98 -136 209 -166 246 -108 134 -256
232 -391 258 -86 16 -232 7 -302 -20 -46 -17 -295 -150 -628 -333 l-72 -39 2
543 3 543 70 28 c165 67 436 135 620 155 154 18 429 14 561 -8z m2129 -546
c329 -68 596 -133 623 -150 13 -9 30 -32 39 -52 28 -67 -20 -152 -87 -152 -15
0 -207 91 -436 205 -225 113 -398 203 -384 200 14 -2 124 -25 245 -51z m-1095
-610 c126 -37 215 -105 262 -201 26 -54 33 -79 32 -125 0 -32 -4 -61 -7 -65
-4 -3 -28 3 -55 15 -106 49 -217 51 -324 8 l-57 -23 -20 46 c-44 104 -53 300
-14 343 21 23 108 24 183 2z m160 -527 c68 -34 71 -39 73 -119 2 -65 6 -82 35
-128 l33 -54 -17 -38 c-9 -21 -23 -43 -31 -50 -16 -13 -362 -16 -383 -3 -6 4
-23 31 -36 59 -62 132 3 290 141 341 50 18 139 14 185 -8z m157 -582 c671 -87
1243 -473 1577 -1063 145 -256 238 -570 259 -875 l4 -57 -1684 0 c-1797 0
-1729 2 -1747 -45 -13 -35 -6 -76 19 -100 l24 -25 1773 0 c1741 0 1774 0 1805
-20 71 -43 82 -136 24 -194 l-31 -31 -2268 -2 c-1801 -2 -2272 0 -2292 10 -34
17 -70 74 -70 111 0 17 9 45 20 63 37 61 47 63 378 63 288 0 300 1 326 21 19
15 26 30 26 54 0 89 -19 95 -283 95 l-214 0 4 57 c45 674 423 1295 1003 1648
250 153 563 261 850 294 125 14 371 12 497 -4z"/>
<path d="M740 4663 c-125 -22 -308 -80 -338 -106 -22 -20 -22 -25 -22 -249 l0
-229 25 -24 c31 -32 75 -32 112 -1 l28 24 5 184 5 183 115 28 c197 48 190 45
206 82 15 38 11 59 -19 93 -20 22 -53 26 -117 15z"/>
<path d="M1770 2257 c-55 -28 -64 -94 -18 -137 56 -52 150 4 133 80 -11 52
-69 81 -115 57z"/>
<path d="M1465 2093 c-59 -39 -120 -89 -213 -172 -270 -241 -493 -622 -573
-981 -24 -111 -24 -126 6 -155 48 -48 126 -25 141 42 61 267 135 450 257 637
111 170 266 336 416 445 102 74 111 84 118 123 4 30 1 41 -20 62 -34 34 -80
34 -132 -1z"/>
</g>
</svg>
