<?xml version="1.0" standalone="no"?>
<!DOCTYPE svg PUBLIC "-//W3C//DTD SVG 20010904//EN"
 "http://www.w3.org/TR/2001/REC-SVG-20010904/DTD/svg10.dtd">
<svg version="1.0" xmlns="http://www.w3.org/2000/svg"
 width="512.000000pt" height="512.000000pt" viewBox="0 0 512.000000 512.000000"
 preserveAspectRatio="xMidYMid meet">

<g transform="translate(0.000000,512.000000) scale(0.100000,-0.100000)"
fill="#000000" stroke="none">
<path d="M78 5099 c-23 -12 -46 -35 -58 -59 -20 -38 -20 -57 -20 -829 0 -547
3 -806 11 -843 27 -125 115 -243 224 -299 l65 -34 0 -1306 c0 -847 4 -1325 10
-1360 45 -235 275 -399 506 -361 190 31 339 175 374 361 5 30 10 129 10 222
l0 167 113 -75 c416 -278 958 -419 1437 -374 527 50 995 265 1388 638 l82 78
0 -301 c0 -166 5 -325 10 -355 35 -186 184 -330 374 -361 231 -38 461 126 506
361 7 36 10 828 10 2344 l0 2289 -21 38 c-24 43 -83 80 -125 80 -43 -1 -98
-29 -210 -111 -291 -212 -485 -433 -628 -717 -20 -40 -39 -72 -42 -72 -3 0
-40 29 -83 64 -322 268 -698 435 -1131 502 -161 25 -493 25 -645 0 -253 -41
-500 -117 -687 -212 l-48 -24 0 225 c0 207 -2 229 -20 265 -23 45 -80 80 -130
80 -50 0 -107 -35 -130 -80 -19 -38 -20 -58 -20 -585 l0 -545 -150 0 -150 0 0
545 c0 527 -1 547 -20 585 -23 45 -80 80 -130 80 -50 0 -107 -35 -130 -80 -19
-38 -20 -58 -20 -585 l0 -545 -150 0 -150 0 0 545 c0 527 -1 547 -20 585 -37
73 -127 99 -202 59z m4742 -2554 c0 -2111 0 -2126 -20 -2165 -23 -45 -80 -80
-130 -80 -50 0 -107 35 -130 80 -20 38 -20 57 -20 825 0 768 0 787 -20 825
-31 60 -78 80 -190 80 l-90 0 0 693 c0 759 3 812 59 1021 73 274 219 531 420
738 57 60 108 108 112 108 5 0 9 -928 9 -2125z m-2069 1955 c390 -40 778 -202
1068 -446 47 -39 104 -90 126 -113 l39 -41 -22 -107 c-12 -60 -25 -142 -28
-183 -4 -41 -10 -80 -13 -87 -4 -7 -28 15 -61 58 -85 110 -250 262 -374 344
-229 152 -484 246 -748 274 -415 45 -853 -76 -1180 -326 l-58 -44 0 188 0 188
85 49 c339 194 773 285 1166 246z m-36 -601 c285 -34 530 -143 748 -334 216
-189 366 -447 429 -738 17 -82 22 -135 22 -267 0 -132 -5 -185 -22 -267 -111
-518 -492 -912 -1008 -1042 -310 -78 -670 -35 -951 114 -369 196 -622 528
-703 925 -50 247 -31 508 55 736 18 47 38 78 78 117 60 58 113 152 123 218 6
38 20 56 108 144 238 237 495 357 851 399 67 7 185 5 270 -5z m-1515 -379 c0
-112 -20 -159 -80 -190 -37 -19 -58 -20 -370 -20 -312 0 -333 1 -370 20 -60
31 -80 78 -80 190 l0 90 450 0 450 0 0 -90z m-300 -1805 c0 -1279 0 -1296 -20
-1335 -23 -45 -80 -80 -130 -80 -50 0 -107 35 -130 80 -20 39 -20 56 -20 1335
l0 1295 150 0 150 0 0 -1295z m3320 -51 l0 -145 -41 -60 c-135 -200 -346 -404
-559 -542 -468 -303 -1017 -390 -1559 -247 -292 77 -587 237 -814 442 l-48 43
3 227 3 227 55 -70 c85 -110 250 -261 374 -344 617 -411 1409 -373 1981 95
145 118 306 309 384 452 l36 68 93 0 92 0 0 -146z"/>
</g>
</svg>
